<svg width="815" height="541" viewBox="0 0 815 541" fill="none" xmlns="http://www.w3.org/2000/svg">
<g opacity="0.16" clip-path="url(#clip0_19_339)">
<path d="M112.19 313.037C111.381 311.767 110.597 310.48 109.836 309.176L111.058 308.373C111.808 309.66 112.582 310.931 113.38 312.185L112.19 313.037ZM105.506 301.009C104.169 298.224 102.942 295.382 101.826 292.492L103.155 291.914C104.257 294.766 105.467 297.57 106.786 300.317L105.506 301.009ZM98.8247 283.679C97.9406 280.699 97.1725 277.681 96.5228 274.634L97.9242 274.297C98.5615 277.292 99.3255 280.295 100.195 283.221L98.8247 283.679ZM94.9347 265.417C94.526 262.325 94.2365 259.215 94.0671 256.096L95.5014 256.008C95.6683 259.085 95.9537 262.154 96.3575 265.206L94.9347 265.417ZM95.3533 246.765L93.9174 246.729C93.9865 243.614 94.1781 240.469 94.4841 237.382L95.9126 237.543C95.6083 240.607 95.4216 243.684 95.3533 246.765ZM97.1824 228.401L95.7711 228.117C96.3213 225.048 96.9899 222.005 97.7753 218.994L99.1594 219.402C98.3847 222.371 97.7243 225.374 97.1824 228.401ZM101.834 210.607L100.487 210.079C101.507 207.147 102.641 204.261 103.887 201.427L105.188 202.072C103.96 204.866 102.84 207.714 101.834 210.607ZM298.514 205.896C297.384 203.056 296.146 200.268 294.8 197.537L296.073 196.831C297.437 199.599 298.693 202.426 299.837 205.304L298.514 205.896ZM109.196 193.861L107.949 193.106C109.411 190.393 110.977 187.744 112.644 185.169L113.828 186.031C112.184 188.573 110.638 191.186 109.196 193.861ZM290.449 189.531C288.895 186.927 287.241 184.392 285.492 181.931L286.638 181.013C288.405 183.498 290.095 186.089 291.663 188.716L290.449 189.531ZM119.05 178.63L117.937 177.668C119.798 175.246 121.75 172.907 123.79 170.654L124.826 171.71C122.812 173.932 120.886 176.241 119.05 178.63ZM279.964 174.788C278.03 172.489 276.008 170.274 273.902 168.15L274.893 167.045C277.026 169.199 279.075 171.443 281.035 173.774L279.964 174.788ZM131.114 165.315L130.164 164.173C132.361 162.114 134.667 160.127 137.016 158.266L137.875 159.487C135.547 161.331 133.292 163.276 131.114 165.315ZM267.35 162.058C265.088 160.125 262.752 158.289 260.348 156.558L261.155 155.296C263.591 157.051 265.959 158.912 268.252 160.872L267.35 162.058ZM145.061 154.269L144.299 152.977C146.795 151.322 149.353 149.775 151.968 148.342L152.626 149.697C150.047 151.111 147.523 152.636 145.061 154.269ZM252.945 151.686C250.415 150.171 247.827 148.767 245.187 147.478L245.788 146.093C248.463 147.4 251.086 148.823 253.652 150.358L252.945 151.686ZM160.52 145.803L159.969 144.395C162.686 143.199 165.448 142.122 168.249 141.166L168.688 142.617C165.924 143.56 163.2 144.622 160.52 145.803ZM237.129 143.964C234.398 142.913 231.627 141.983 228.823 141.174L229.2 139.704C232.042 140.523 234.851 141.466 237.619 142.533L237.129 143.964ZM177.082 140.159L176.759 138.674C179.626 137.97 182.52 137.391 185.432 136.939L185.639 138.447C182.766 138.893 179.911 139.464 177.082 140.159ZM220.329 139.124C217.473 138.567 214.596 138.134 211.706 137.826L211.849 136.31C214.771 136.62 217.712 137.062 220.589 137.625L220.329 139.124ZM194.301 137.489L194.21 135.968C197.131 135.772 200.11 135.703 203.036 135.759L203.01 137.283C200.12 137.226 197.184 137.296 194.301 137.489ZM302.839 219.009C302.453 217.552 302.038 216.103 301.596 214.664L302.962 214.191C303.41 215.65 303.83 217.119 304.221 218.596L302.839 219.009ZM294.082 133.667H292.646C292.646 132.143 292.67 130.595 292.721 129.069L294.157 129.122C294.107 130.636 294.082 132.151 294.082 133.667ZM294.765 119.958L293.337 119.797C293.646 116.716 294.059 113.649 294.574 110.6L295.988 110.87C295.478 113.883 295.07 116.914 294.765 119.958ZM297.823 101.898L296.431 101.522C297.153 98.5204 297.977 95.5475 298.901 92.6087L300.263 93.0912C299.351 95.9952 298.537 98.9323 297.823 101.898ZM526.858 85.82C525.779 82.9806 524.605 80.184 523.338 77.4345L524.628 76.7652C525.91 79.547 527.098 82.3777 528.19 85.2511L526.858 85.82ZM303.298 84.4841L301.973 83.8995C303.095 81.0365 304.314 78.2181 305.627 75.4485L306.91 76.1344C305.613 78.8708 304.408 81.6561 303.298 84.4841ZM519.258 69.3378C517.807 66.6922 516.267 64.1015 514.642 61.5719L515.828 60.7133C517.473 63.2725 519.031 65.8938 520.499 68.5717L519.258 69.3378ZM311.079 68.0822L309.846 67.3012C311.343 64.6407 312.93 62.037 314.601 59.496L315.779 60.3686C314.126 62.8799 312.559 65.4522 311.079 68.0822ZM509.515 54.175C507.723 51.7754 505.851 49.4439 503.903 47.1848L504.962 46.156C506.933 48.4422 508.827 50.8007 510.641 53.2291L509.515 54.175ZM320.987 53.0337L319.871 52.0738C321.711 49.6673 323.63 47.3314 325.626 45.0696L326.673 46.1115C324.701 48.347 322.805 50.6559 320.987 53.0337ZM497.837 40.6369C495.742 38.5314 493.577 36.5061 491.346 34.5629L492.256 33.3849C494.513 35.3508 496.704 37.4005 498.825 39.5305L497.837 40.6369ZM332.809 39.6369L331.834 38.5192C333.967 36.4241 336.198 34.3831 338.465 32.4539L339.363 33.6423C337.113 35.5576 334.927 37.5576 332.809 39.6369ZM484.464 28.9949C482.107 27.2271 479.693 25.5491 477.224 23.9636L477.967 22.66C480.465 24.2638 482.908 25.9619 485.293 27.7506L484.464 28.9949ZM346.302 28.1599L345.486 26.9069C347.887 25.1477 350.348 23.4802 352.861 21.907L353.591 23.2193C351.106 24.7743 348.675 26.4217 346.302 28.1599ZM469.663 19.496C467.093 18.1034 464.477 16.8094 461.819 15.6157L462.379 14.2126C465.068 15.4193 467.715 16.7291 470.317 18.1383L469.663 19.496ZM361.193 18.846L360.554 17.4812C363.167 16.1043 365.826 14.8277 368.525 13.6541L369.07 15.0633C366.403 16.2239 363.775 17.4856 361.193 18.846ZM453.732 12.3452C451 11.3592 448.235 10.4779 445.443 9.70306L445.807 8.2284C448.632 9.01285 451.43 9.90463 454.194 10.9029L453.732 12.3452ZM377.18 11.8941L376.732 10.4465C379.506 9.4823 382.312 8.62368 385.145 7.87326L385.492 9.35141C382.694 10.0931 379.921 10.9413 377.18 11.8941ZM436.999 7.7031C434.161 7.14553 431.308 6.6944 428.441 6.35235L428.6 4.83755C431.489 5.18222 434.403 5.6412 437.26 6.20401L436.999 7.7031ZM393.957 7.4518L393.71 5.95096C396.586 5.42043 399.478 4.9981 402.383 4.68572L402.527 6.20227C399.667 6.50854 396.784 6.92913 393.957 7.4518ZM419.813 5.65341C416.93 5.53038 414.044 5.51293 411.16 5.60368L411.117 4.08015C414.005 3.98853 416.962 4.00511 419.872 4.13163L419.813 5.65341ZM531.058 98.8974C530.672 97.4384 530.261 95.9873 529.826 94.5449L531.193 94.0807C531.634 95.5406 532.05 97.0082 532.442 98.4838L531.058 98.8974Z" fill="#3F3D56"/>
<path d="M111.35 331.952C124.56 331.952 135.27 331.1 135.27 330.048C135.27 328.997 124.56 328.144 111.35 328.144C98.1388 328.144 87.4295 328.997 87.4295 330.048C87.4295 331.1 98.1388 331.952 111.35 331.952ZM302.115 239.938C315.326 239.938 326.035 239.086 326.035 238.035C326.035 236.983 315.326 236.131 302.115 236.131C288.904 236.131 278.194 236.983 278.194 238.035C278.194 239.086 288.904 239.938 302.115 239.938ZM537.731 144.117C550.941 144.117 561.651 143.265 561.651 142.213C561.651 141.162 550.941 140.309 537.731 140.309C524.52 140.309 513.81 141.162 513.81 142.213C513.81 143.265 524.52 144.117 537.731 144.117Z" fill="#6C63FF"/>
<path d="M528.252 135.963L456.324 212.29L457.34 213.368L529.268 137.041L528.252 135.963ZM435.471 222.042H314.673V223.566H435.471V222.042ZM292.625 232.432L225.062 304.127L226.077 305.204L293.64 233.51L292.625 232.432ZM204.639 314.057H123.908V315.58H204.639V314.057ZM101.962 323.702L21.7385 408.832L22.7534 409.91L102.978 324.78L101.962 323.702Z" fill="#3F3D56"/>
<path d="M111.35 328.907C107.374 328.907 103.608 327.017 101.086 323.756C98.5639 320.495 97.5524 316.208 98.3279 312.07C99.6569 304.96 105.853 300.08 112.652 300.79C119.45 301.501 124.63 307.57 124.626 314.818C124.618 322.596 118.678 328.897 111.35 328.907ZM111.35 302.254C107.804 302.255 104.447 303.941 102.198 306.849C99.9489 309.757 99.0459 313.58 99.7359 317.269C100.672 322.254 104.343 326.149 109.04 327.141C113.736 328.134 118.534 326.025 121.194 321.799C122.495 319.733 123.189 317.304 123.19 314.818C123.182 307.883 117.885 302.263 111.35 302.254ZM217.198 328.907C211.828 328.907 206.986 325.474 204.931 320.21C202.876 314.945 204.011 308.885 207.808 304.855C211.605 300.826 217.316 299.621 222.278 301.801C227.239 303.983 230.474 309.12 230.474 314.818C230.466 322.596 224.526 328.897 217.198 328.907ZM217.198 302.254C212.408 302.253 208.09 305.315 206.257 310.01C204.426 314.706 205.439 320.11 208.825 323.703C212.212 327.296 217.304 328.37 221.728 326.426C226.152 324.481 229.037 319.9 229.038 314.818C229.03 307.883 223.733 302.263 217.198 302.254ZM302.115 236.893C296.745 236.893 291.903 233.461 289.849 228.196C288.33 224.299 288.535 219.884 290.409 216.165C292.282 212.446 295.627 209.812 299.524 208.987C303.423 208.165 307.465 209.239 310.537 211.914C313.61 214.59 315.391 218.587 315.391 222.805C315.384 230.582 309.444 236.885 302.115 236.893ZM302.115 210.24C297.325 210.24 293.008 213.302 291.174 217.997C289.341 222.691 290.355 228.096 293.741 231.69C297.128 235.284 302.221 236.359 306.646 234.414C311.07 232.469 313.955 227.887 313.955 222.805C313.947 215.87 308.651 210.249 302.115 210.24ZM448.029 236.893C442.658 236.893 437.817 233.461 435.763 228.196C433.707 222.931 434.842 216.87 438.639 212.84C442.437 208.81 448.148 207.604 453.11 209.786C458.072 211.966 461.306 217.105 461.306 222.805C461.296 230.581 455.357 236.882 448.029 236.893ZM448.029 210.24C443.24 210.241 438.923 213.302 437.09 217.997C435.256 222.692 436.268 228.098 439.655 231.691C443.042 235.285 448.136 236.359 452.56 234.413C456.985 232.468 459.87 227.887 459.87 222.805C459.861 215.869 454.564 210.247 448.029 210.24ZM537.73 141.072C533.755 141.072 529.989 139.182 527.467 135.921C524.945 132.66 523.934 128.372 524.709 124.235C525.756 118.646 529.873 114.277 535.14 113.166C539.039 112.342 543.08 113.416 546.154 116.093C549.226 118.769 551.007 122.765 551.007 126.983C550.997 134.761 545.059 141.061 537.73 141.072ZM537.73 114.419C532.941 114.419 528.623 117.481 526.791 122.176C524.958 126.872 525.971 132.275 529.358 135.87C532.744 139.463 537.837 140.538 542.262 138.592C546.686 136.647 549.571 132.065 549.571 126.983C549.563 120.048 544.266 114.428 537.73 114.419ZM13.2768 432.977C9.30129 432.979 5.53469 431.089 3.01239 427.828C0.490081 424.567 -0.522296 420.279 0.254052 416.141C1.30179 410.553 5.41873 406.184 10.6854 405.072C14.5836 404.247 18.6257 405.321 21.699 407.998C24.7723 410.674 26.5528 414.67 26.5512 418.889C26.5421 426.666 20.6036 432.968 13.2751 432.977H13.2768ZM13.2768 406.325C8.48711 406.325 4.16951 409.386 2.33637 414.081C0.503239 418.777 1.51644 424.182 4.90309 427.775C8.28974 431.369 13.3829 432.443 17.8074 430.498C22.2319 428.553 25.1169 423.971 25.1169 418.889C25.1095 411.953 19.8124 406.332 13.276 406.325H13.2768Z" fill="#3F3D56"/>
<path d="M111.35 231.689C105.006 231.689 98.9217 234.364 94.4355 239.124C92.2142 241.481 90.4518 244.278 89.2503 247.358C88.048 250.438 87.4295 253.739 87.4295 257.072C87.4295 271.091 111.35 317.357 111.35 317.357C111.35 317.357 135.27 271.091 135.27 257.072C135.269 243.053 124.56 231.689 111.35 231.689ZM111.35 270.398C106.271 270.397 101.692 267.15 99.7474 262.171C98.3082 258.485 98.5007 254.308 100.273 250.789C102.046 247.27 105.211 244.78 108.899 244.002C113.881 242.951 118.969 245.187 121.792 249.669C124.366 253.757 124.61 259.018 122.425 263.354C120.241 267.691 115.983 270.399 111.35 270.398ZM302.115 136.502C288.904 136.503 278.195 147.867 278.194 161.886C278.194 175.904 302.115 222.17 302.115 222.17C302.115 222.17 326.035 175.904 326.035 161.886C326.036 155.153 323.515 148.697 319.028 143.937C314.543 139.176 308.459 136.501 302.115 136.502ZM302.115 175.212C297.596 175.263 293.4 172.734 291.127 168.59C288.853 164.446 288.853 159.325 291.127 155.181C293.4 151.037 297.596 148.508 302.115 148.56C308.998 148.637 314.539 154.581 314.539 161.886C314.539 169.19 308.998 175.134 302.115 175.212Z" fill="#D7FCE8"/>
<path d="M672.563 12.7912C672.563 6.62818 676.963 1.46686 682.742 0.850823C678.452 0.39359 674.291 2.5637 672.012 6.44668C669.733 10.3305 669.733 15.251 672.012 19.134C674.291 23.017 678.452 25.1871 682.742 24.7299C676.963 24.1138 672.563 18.9525 672.563 12.7895V12.7912Z" fill="#2F2E41"/>
<path d="M537.731 45.1221C528.056 45.1238 519.334 51.3078 515.631 60.7927C514.429 63.8721 513.81 67.1731 513.81 70.5063C513.81 84.5252 537.731 130.791 537.731 130.791C537.731 130.791 561.651 84.5252 561.651 70.5063C561.65 56.4874 550.941 45.1229 537.731 45.1221ZM537.731 83.8324C532.651 83.8332 528.072 80.5864 526.128 75.6057C524.185 70.6259 525.26 64.8947 528.85 61.0824C531.509 58.2614 535.22 56.853 538.962 57.244C542.704 57.6349 546.083 59.7849 548.173 63.1016C551.499 68.3886 550.846 75.432 546.611 79.9284C544.256 82.4284 541.061 83.8324 537.731 83.8324Z" fill="#ABE4E8" fill-opacity="0.71"/>
</g>
<defs>
<clipPath id="clip0_19_339">
<rect width="815" height="541" fill="white"/>
</clipPath>
</defs>
</svg>
