<svg width="857" height="744" viewBox="0 0 857 744" fill="none" xmlns="http://www.w3.org/2000/svg">
<path opacity="0.45" d="M161.171 628.754C161.171 615.263 308.972 604.326 491.293 604.326C673.615 604.326 821.416 615.263 821.416 628.754C821.416 642.246 673.615 653.182 491.293 653.182C308.972 653.182 161.171 642.246 161.171 628.754Z" fill="#E6E6E6"/>
<path d="M508.137 107.161L504.985 176.601C495.8 193.961 493.14 196.838 489.865 197.458V218.24C497.967 220.224 505.157 220.72 509.393 218.24C524.168 209.312 534.363 163.953 534.363 163.953L508.137 107.161Z" fill="#68E1FD"/>
<path d="M225.368 184.304L768.916 182.964L769.881 580.732L226.333 582.071L225.368 184.304Z" fill="#F2F2F2"/>
<path d="M225.343 183.619H769.088V261.938H225.343V183.619Z" fill="#E6E6E6"/>
<path d="M264.275 224.018C264.275 218.54 268.685 214.098 274.125 214.098C279.566 214.098 283.975 218.54 283.975 224.018C283.975 229.497 279.566 233.938 274.125 233.938C268.685 233.938 264.275 229.497 264.275 224.018Z" fill="#24285B"/>
<path d="M293.579 223.944C293.579 218.465 297.989 214.024 303.429 214.024C308.869 214.024 313.279 218.465 313.279 223.944C313.279 229.423 308.869 233.864 303.429 233.864C297.989 233.864 293.579 229.423 293.579 223.944Z" fill="#68E1FD"/>
<path d="M321.184 223.87C321.184 218.391 325.594 213.95 331.034 213.95C336.474 213.95 340.884 218.391 340.884 223.87C340.884 229.348 336.474 233.79 331.034 233.79C325.594 233.79 321.184 229.348 321.184 223.87Z" fill="#FFD200"/>
<path d="M473.834 450.641H706.861V465.248H473.834V450.641ZM473.834 489.329H706.861V503.936H473.834V489.329ZM473.834 528.017H635.744V542.624H473.834V528.017ZM473.834 289.639H700.828V426.535H473.834V289.639Z" fill="#E6E6E6"/>
<path opacity="0.17" d="M274.519 288.399H447.707V337.602H274.519V288.399Z" fill="#666666"/>
<path d="M274.519 358.087H447.707V407.29H274.519V358.087Z" fill="#E6E6E6"/>
<path opacity="0.17" d="M287.103 382.912C287.103 373.133 294.975 365.205 304.685 365.205C314.396 365.205 322.267 373.133 322.267 382.912C322.267 392.691 314.396 400.619 304.685 400.619C294.975 400.619 287.103 392.691 287.103 382.912Z" fill="#666666"/>
<path opacity="0.17" d="M335.516 371.901H405.377V379.688H335.516V371.901ZM335.516 387.475H379.299V395.262H335.516V387.475Z" fill="#666666"/>
<path d="M274.519 427.8H447.707V477.003H274.519V427.8Z" fill="#E6E6E6"/>
<path opacity="0.17" d="M287.103 452.625C287.103 442.845 294.975 434.918 304.685 434.918C314.396 434.918 322.267 442.845 322.267 452.625C322.267 462.404 314.396 470.332 304.685 470.332C294.975 470.332 287.103 462.404 287.103 452.625Z" fill="#666666"/>
<path opacity="0.17" d="M335.516 441.589H405.377V449.376H335.516V441.589ZM335.516 457.188H379.299V464.975H335.516V457.188Z" fill="#666666"/>
<path d="M274.519 497.488H447.707V546.691H274.519V497.488Z" fill="#E6E6E6"/>
<path opacity="0.17" d="M287.103 522.313C287.103 512.533 294.975 504.606 304.685 504.606C314.396 504.606 322.267 512.533 322.267 522.313C322.267 532.092 314.396 540.02 304.685 540.02C294.975 540.02 287.103 532.092 287.103 522.313Z" fill="#666666"/>
<path opacity="0.17" d="M335.516 511.302H405.377V519.089H335.516V511.302ZM335.516 526.876H379.299V534.663H335.516V526.876Z" fill="#666666"/>
<path opacity="0.08" d="M283.976 581.907C284.813 581.907 264.768 472.266 271.441 457.188C278.115 442.11 293.973 427.428 293.604 415.301C293.234 403.174 340.071 367.362 350.241 337.602L359.353 352.11L454.282 271.362C454.282 271.362 470.461 269.03 475.73 257.201C481 245.371 530.324 183.52 530.324 183.52H503.926L474.13 222.704L453.937 214.098L346.104 295.938L339.923 319.994C339.923 319.994 262.798 375.72 237.336 405.158C211.874 434.595 245.831 581.882 245.831 581.882L283.976 581.907Z" fill="black"/>
<path d="M332.63 293.156L448.855 196.188L477.225 230.677L361.002 327.645L332.63 293.156Z" fill="#24285B"/>
<path d="M352.088 292.938C352.088 284.035 359.254 276.818 368.094 276.818C376.935 276.818 384.101 284.035 384.101 292.938C384.101 301.84 376.935 309.058 368.094 309.058C359.254 309.058 352.088 301.84 352.088 292.938Z" fill="#FFD200"/>
<path opacity="0.17" d="M383.357 267.136L432.319 226.285L436.813 231.746L387.851 272.599L383.357 267.136ZM392.34 278.058L423.023 252.457L427.515 257.92L396.832 283.519L392.34 278.058Z" fill="white"/>
<path d="M197.123 493.892L181.043 545.6C176.673 559.765 166.632 571.451 153.34 577.84L129.7 589.149L130.66 596.192L165.972 588.504C182.795 583.52 196.746 571.613 204.388 555.718L229.333 503.986L197.123 493.892ZM250.412 508.474L257.947 619.38L250.929 621.835L222.979 518.097L250.412 508.474Z" fill="#C79B8E"/>
<path d="M259.4 621.29C259.4 621.29 261.025 627.862 265.95 629.92C270.875 631.978 268.412 639.121 261.025 634.756C258.725 633.414 256.542 631.88 254.499 630.168C252.579 628.647 250.294 627.663 247.875 627.316C246.956 627.075 246.256 626.322 246.078 625.382C245.093 621.761 253.268 618.338 253.268 618.338L259.4 621.29ZM130.66 596.118C130.66 596.118 125.735 599.937 125.735 604.946C125.735 609.956 118.84 610.576 119.702 602.466C119.963 599.953 120.424 597.465 121.081 595.026C121.644 592.791 121.602 590.444 120.958 588.231C120.769 587.343 121.153 586.431 121.918 585.95C124.602 583.718 130.66 589.422 130.66 589.422V596.118Z" fill="#FF0000"/>
<path d="M208.254 347.746L210.889 358.41L202.294 362.973L200.792 344.72L208.254 347.746Z" fill="#F4A28C"/>
<path d="M198.773 334.453C199.8 332.509 201.734 331.221 203.912 331.03C206.09 330.84 208.215 331.774 209.559 333.51C212.735 337.528 216.454 343.802 211.455 346.654C203.796 351.019 197.886 341.248 197.886 341.248C197.504 338.945 197.812 336.578 198.773 334.453ZM163.51 381.201C163.51 381.201 126.572 439.406 133.96 447.987C157.452 475.267 209.608 413.912 209.608 413.912L163.51 381.201Z" fill="#C79B8E"/>
<path d="M247.137 372.496C225.399 356.515 196.042 355.989 173.754 371.182C164.076 377.803 156.516 387.723 160.038 402.058C168.041 435.711 193.651 457.882 194.513 487.494L255.115 483.402V445.284C255.087 438.002 258.087 431.041 263.389 426.089C268.659 421.129 273.928 413.168 270.333 402.206C267.058 392.435 258.784 381.102 247.137 372.496Z" fill="#FF0000"/>
<path d="M203.575 341.248C203.575 341.248 201.851 339.537 200.817 341.694C199.783 343.852 203.008 345.191 204.067 344.174C205.126 343.158 203.575 341.248 203.575 341.248Z" fill="#F4A28C"/>
<path opacity="0.08" d="M217.143 388.368C217.143 388.368 204.043 413.565 219.236 438.142C234.43 462.718 205.643 486.725 205.643 486.725L255.041 483.402V461.677L217.143 388.368Z" fill="black"/>
<path d="M191.903 373.265C193.06 368.702 198.453 360.418 190.868 345.489C188.577 340.499 188.631 334.736 191.016 329.79C198.231 317.539 209.854 321.73 208.475 328.6C207.096 335.47 206.013 338.743 206.013 338.743C206.013 338.743 228.028 354.64 224.802 366.346C222.068 376.762 187.002 392.262 191.903 373.265ZM191.779 471.919H255.041L265.113 560.083L171.267 555.818L191.779 471.919Z" fill="#24285B"/>
<path d="M212.415 403.843C210.48 399.47 210.365 394.498 212.096 390.038C213.826 385.579 217.258 382.003 221.625 380.11C225.919 378.326 230.339 376.867 234.849 375.745C261.788 368.801 308.576 349.928 336.057 313.571C336.057 313.571 343.987 299.658 355.142 303.354C366.297 307.049 358.54 320.118 347.311 316.845C347.311 316.845 313.747 403 237.016 417.186C226.734 418.988 216.562 413.477 212.391 403.843H212.415ZM480.705 84.965L511.338 97.315L510.969 120.082L484.275 98.208L480.705 84.965Z" fill="#C79B8E"/>
<path opacity="0.31" d="M488.314 101.804C488.983 99.555 488.983 97.158 488.314 94.91C492.02 97.949 494.441 102.292 495.086 107.062L488.314 101.804Z" fill="#CE8172"/>
<path d="M470.879 96.274C474.929 100.18 479.485 103.517 484.423 106.194C485.633 106.794 487.034 106.869 488.3 106.4C489.566 105.931 490.586 104.96 491.121 103.714C493.172 99.802 492.748 95.042 490.038 91.562L485.113 83.65C482.74 80.613 478.714 79.427 475.09 80.699C468.269 82.46 466.225 92.206 470.879 96.274Z" fill="#F4A28C"/>
<path d="M475.681 100.44L476.962 105.078C477.109 105.614 477.517 106.039 478.045 106.204C478.573 106.37 479.148 106.254 479.572 105.896L482.527 103.416L475.681 100.44Z" fill="#F4A28C"/>
<path d="M493.682 89.404L484.325 79.36C484.325 79.36 487.28 72.143 481.862 71.424C476.445 70.705 477.602 75.094 472.702 72.143C467.801 69.192 464.329 72.515 465.314 77.103C466.299 81.691 463.295 77.922 460.611 81.096C457.927 84.27 458.862 86.205 461.473 87.966C464.083 89.726 458.099 92.926 460.635 96.398C463.172 99.87 466.299 102.077 472.283 93.67C478.267 85.262 481.443 95.976 493.682 89.404Z" fill="#FFD200"/>
<path d="M484.3 93.273C484.3 93.273 481.32 90.793 483.364 88.685C485.408 86.577 489.742 90.173 487.674 93.645L484.3 93.273Z" fill="#F4A28C"/>
<path opacity="0.08" d="M591.419 189.249C591.419 189.249 578.441 223.175 593.167 240.213C607.893 257.25 640.792 273.718 640.792 273.718C640.792 273.718 645.003 293.558 655.419 275.528L653.4 265.757L622.594 242.147L602.894 217.074L615.6 189.794L591.419 189.249Z" fill="black"/>
<path d="M633.626 146.99L615.625 170.202L603.583 186C596.585 187.06 589.502 187.451 582.43 187.166C561.549 186.422 530.866 179.726 517.494 149.668C513.531 140.321 511.327 130.314 510.993 120.156L511.338 97.414C511.338 97.414 545.074 72.614 575.363 93.298C605.652 113.981 633.626 146.99 633.626 146.99Z" fill="#FF0000"/>
<path d="M633.626 146.99C633.626 146.99 667.338 169.657 649.263 185.256C640.072 193.503 631.709 202.641 624.293 212.536C620.417 217.601 620.848 224.769 625.303 229.326L650.371 255.043L646.012 266.823L609.075 243.238C597.104 235.573 591.878 220.665 596.418 207.13L603.583 186L633.626 146.99Z" fill="#24285B"/>
<path opacity="0.08" d="M615.625 170.202L603.583 186C603.583 186 594.792 186.595 582.431 187.166C561.548 186.422 530.866 179.726 517.494 149.668C528.329 134.788 542.587 120.751 549.285 119.214C549.285 119.214 561.844 154.901 580.608 160.828C598.929 166.631 614.936 170.128 615.699 170.302L615.625 170.202Z" fill="black"/>
<path d="M550.369 125.513C552.831 104.631 526.064 94.116 513.234 110.633C509.413 115.532 506.554 121.121 504.813 127.1C498.262 149.42 457.409 240.337 457.409 240.337L471.273 247.157C471.273 247.157 523.207 181.784 543.425 145.799C547.05 139.567 549.41 132.671 550.369 125.513Z" fill="black"/>
<path d="M459.601 241.453C459.601 241.453 444.309 250.133 452.903 255.862C461.497 261.59 471.175 247.157 471.175 247.157L459.601 241.453Z" fill="#C79B8E"/>
<path d="M647.046 263.897C647.046 263.897 654.163 271.337 651.651 276.148C651.651 276.148 656.576 281.43 660.418 274.486C664.259 267.542 657.561 259.606 657.561 259.606L649.608 256.878L647.046 263.897Z" fill="#FF0000"/>
<path opacity="0.08" d="M710.998 511.698C706.073 524.561 701.632 537.59 697.675 550.783C696.887 553.412 693.514 569.631 690.682 580.37H723.507C725.7 555.369 734.557 531.429 749.142 511.078C749.462 535.035 750.348 560.678 763.769 580.37H778.766C781.839 576.701 783.668 572.139 783.986 567.35C784.155 560.783 783.384 554.226 781.696 547.882C777.632 528.144 775.537 508.047 775.441 487.89C775.441 462.52 778.372 437.1 776.205 411.804C774.899 396.8 771.28 380.829 759.878 370.934C759.401 370.504 758.891 370.114 758.351 369.768C759.484 360.84 760.051 351.813 760.568 342.86L762.144 316.77C762.685 307.917 757.736 293.508 747.59 303.453C739.316 311.538 742.197 320.813 740.203 330.46C737.051 345.538 718.508 343.579 706.811 343.058C669.874 341.397 632.542 342.339 595.457 342.339H508.309V504.705H713.854C712.869 507.036 711.884 509.367 710.998 511.698Z" fill="black"/>
<path d="M702.403 613.974C702.403 613.974 696.961 619.38 691.076 616.826C685.191 614.271 680.906 619.306 685.24 623.596C689.574 627.886 705.974 628.035 705.974 628.035L710.776 616.85L702.403 613.974ZM793.787 611.469C793.787 611.469 796.446 618.909 792.014 623.67C787.581 628.432 790.339 634.582 795.708 631.954C801.076 629.325 807.404 613.254 807.404 613.254L799.451 604.326L793.787 611.469Z" fill="#FF0000"/>
<path d="M808.34 473.01C808.34 473.01 814.078 497.066 804.105 508.896C794.132 520.726 778.864 576.774 804.105 604.798L794.132 614.718C794.132 614.718 750.422 591.058 762.882 505.746L731.658 472.986L808.34 473.01Z" fill="#24285B"/>
<path d="M731.658 473.01L699.645 614.742L715.676 617.222C715.676 617.222 747.689 520.081 768.891 500.142L731.658 473.01Z" fill="#24285B"/>
<path d="M724.221 348.39C724.221 348.39 690.78 362.75 695.903 415.35L728.555 412.548L724.221 348.39Z" fill="#68E1FD"/>
<path opacity="0.36" d="M724.221 348.39C724.221 348.39 690.78 362.75 695.903 415.35L728.555 412.548L724.221 348.39Z" fill="white"/>
<path d="M771.181 309.008L769.901 343.182L751.259 341.124L759.657 317.093L771.181 309.008Z" fill="#F4A28C"/>
<path opacity="0.31" d="M757.613 322.4C760.023 322.248 762.335 321.385 764.262 319.92C762.612 324.586 759.268 328.449 754.904 330.733L757.613 322.4Z" fill="#CE8172"/>
<path d="M768.3 336.263L757.416 338.545C757.416 338.545 707.575 343.951 705.555 372.273C703.536 400.594 731.683 473.01 731.683 473.01H807.208C807.208 473.01 867.662 328.774 768.3 336.263Z" fill="#FF0000"/>
<path d="M752.786 303.998C751.5 309.689 750.986 315.529 751.259 321.358C751.582 324.24 754.16 326.315 757.022 325.996C761.549 325.738 765.504 322.824 767.118 318.556L771.427 309.95C772.825 306.234 771.75 302.034 768.743 299.46C763.523 294.426 753.87 297.724 752.786 303.998Z" fill="#F4A28C"/>
<path opacity="0.09" d="M790.462 349.457C790.462 349.457 764.729 364.56 770.763 398.759C776.796 432.958 786.72 444.714 765.419 439.952C744.118 435.19 735.352 424.402 735.352 424.402C735.352 424.402 720.01 437.001 735.352 446.549C750.693 456.097 771.501 456.097 774.752 473.01H807.158C807.158 473.01 809.769 465.57 813.241 456.27C816.713 446.97 790.462 349.457 790.462 349.457Z" fill="black"/>
<path d="M755.273 304.792C758.425 305.362 761.631 305.562 764.828 305.387C762.565 307.995 762.053 311.705 763.523 314.836C764.907 317.927 768.276 319.592 771.551 318.804L773.225 305.511C773.85 301.65 772.306 297.757 769.211 295.393C767.906 294.377 766.541 293.441 765.123 292.59C761.048 290.303 756.047 290.484 752.146 293.062C749.171 295.615 748.787 300.102 751.284 303.13C752.42 304.072 753.809 304.651 755.273 304.792Z" fill="#24285B"/>
<path d="M762.464 314.39C762.464 314.39 763.104 310.397 766.035 311.141C768.965 311.885 768.078 317.589 763.966 317.564L762.464 314.39Z" fill="#F4A28C"/>
<path d="M522.789 326.566H741.828V488.114H522.789V326.566Z" fill="#FFD200"/>
<path opacity="0.43" d="M540.888 341.62H723.753V473.06H540.888V341.62Z" fill="white"/>
<path opacity="0.49" d="M542.981 473.06L592.748 380.382L635.005 452.253L673.026 407.34L723.729 473.06H542.981Z" fill="white"/>
<path d="M623.727 383.334C623.727 375.17 630.298 368.553 638.403 368.553C646.509 368.553 653.08 375.17 653.08 383.334C653.08 391.497 646.509 398.114 638.403 398.114C630.298 398.114 623.727 391.497 623.727 383.334Z" fill="white"/>
<path d="M830.404 409.894C830.404 409.894 834.664 453.815 813.167 456.27C797.013 458.106 771.107 448.83 755.273 444.391C748.428 442.407 745.103 441.49 739.833 436.654C733.529 430.85 724.763 426.734 731.56 421.203C743.65 411.283 752.244 428.172 752.244 428.172C762.339 431.132 772.745 432.88 783.247 433.38C787.245 433.494 791.06 431.699 793.539 428.539C796.017 425.378 796.867 421.224 795.831 417.334L791.842 402.206C791.842 402.206 820.234 375.422 830.404 409.894ZM751.653 310.496L748.255 314.067C747.864 314.483 747.709 315.07 747.844 315.626C747.978 316.182 748.383 316.632 748.92 316.82L752.737 318.11L751.653 310.496Z" fill="#C79B8E"/>
<path d="M808.168 346.034C819.224 354.64 836.043 373.637 835.723 409.547L789.97 412.498C789.97 412.498 776.746 373.066 790.561 349.457C792.293 346.47 795.221 344.381 798.594 343.725C801.967 343.069 805.456 343.911 808.168 346.034Z" fill="#FF0000"/>
<path opacity="0.36" d="M808.168 346.034C819.224 354.64 836.043 373.637 835.723 409.547L789.97 412.498C789.97 412.498 776.746 373.066 790.561 349.457C792.293 346.47 795.221 344.381 798.594 343.725C801.967 343.069 805.456 343.911 808.168 346.034Z" fill="white"/>
<path d="M427.022 183.57H358.072V172.583H427.022V183.57Z" fill="#C9C9C9"/>
<path d="M410.228 172.534H358.072V161.547H410.228V172.534Z" fill="#E6E6E6"/>
<path opacity="0.58" d="M363.933 159.018C363.933 159.018 383.19 153.71 387.4 135.631C387.4 135.631 357.53 129.555 356.668 160.605L363.933 159.018Z" fill="#FF0000"/>
<path opacity="0.73" d="M361.569 157.083C361.569 157.083 375.014 135.631 363.169 115.593C363.169 115.593 340.465 130.126 350.561 157.133L361.569 157.083Z" fill="#FF0000"/>
<path d="M358.097 157.108C358.097 157.108 350.98 134.466 329.458 130.175C329.458 130.175 325.444 144.857 343.396 157.158L358.097 157.108Z" fill="#FF0000"/>
<path d="M372.059 156.587L368.168 183.52L343.543 183.619L339.923 156.711L372.059 156.587Z" fill="#24285B"/>
</svg>
