<svg width="166" height="105" viewBox="0 0 166 105" fill="none" xmlns="http://www.w3.org/2000/svg">
<path d="M163.346 80.6052L163.283 81.0713L165.886 81.4037L165.95 80.9368L163.346 80.6052Z" fill="#2F2E41"/>
<path d="M10.884 0H95.9911C101.999 0.00679856 106.868 4.70611 106.875 10.5053V55.4476C106.868 61.2467 101.999 65.946 95.9911 65.9528H10.884C4.87586 65.946 0.00626415 61.2467 0 55.4476V10.5053C0.00704717 4.70611 4.87586 0.00679856 10.884 0Z" fill="#F2F2F2"/>
<path d="M10.884 3.02466H95.9911C100.27 3.02919 103.737 6.37559 103.742 10.5053V55.4476C103.737 59.5774 100.27 62.9238 95.9911 62.9283H10.884C6.60478 62.9238 3.13757 59.5774 3.13287 55.4476V10.5053C3.13835 6.37559 6.60556 3.02919 10.884 3.02466Z" fill="white"/>
<path d="M11.7139 82.0436C11.4571 82.0428 11.2034 81.993 10.9662 81.8978C10.2426 81.616 9.77205 80.9362 9.77988 80.183V64.6468L31.2377 63.9503L13.0615 81.4952C12.706 81.8442 12.2213 82.0421 11.7139 82.0436ZM85.3318 14.203H21.3357C18.7736 14.203 16.6963 16.2078 16.6963 18.681C16.6963 21.1542 18.7736 23.159 21.3357 23.159H85.3318C87.8946 23.159 89.9712 21.1542 89.9712 18.681C89.9712 16.2078 87.8946 14.203 85.3318 14.203ZM85.4359 28.4981H21.439C18.877 28.4981 16.7996 30.5037 16.7996 32.9761C16.7996 35.4493 18.877 37.4548 21.439 37.4548H85.4359C87.998 37.4548 90.0753 35.4493 90.0753 32.9761C90.0753 30.5037 87.998 28.4981 85.4359 28.4981ZM85.5393 42.7932H21.5432C18.9804 42.7932 16.9038 44.7988 16.9038 47.272C16.9038 49.7451 18.9804 51.7499 21.5432 51.7499H85.5401C88.1021 51.7499 90.1795 49.7451 90.1795 47.272C90.1795 44.7988 88.1021 42.7932 85.5401 42.7932H85.5393Z" fill="#F2F2F2"/>
<path d="M145.275 22.921H60.1672C54.1591 22.9278 49.2903 27.6271 49.284 33.4263V78.3686C49.2903 84.1677 54.1591 88.8671 60.1672 88.8739H145.275C151.283 88.8678 156.152 84.1677 156.159 78.3686V33.4263C156.152 27.6271 151.283 22.9278 145.275 22.921Z" fill="#E6E6E6"/>
<path d="M145.275 25.9456H60.1672C55.8888 25.9501 52.4216 29.2965 52.4169 33.4262V78.3685C52.4216 82.4983 55.8888 85.8447 60.1672 85.8492H145.275C149.553 85.8447 153.021 82.4983 153.025 78.3685V33.4262C153.021 29.2965 149.553 25.9501 145.275 25.9456Z" fill="white"/>
<path d="M138.8 104.416L120.623 86.8712L142.082 87.5677V103.104C142.09 103.857 141.619 104.537 140.896 104.819C140.658 104.914 140.405 104.964 140.148 104.964C139.64 104.963 139.155 104.766 138.8 104.416Z" fill="#E6E6E6"/>
<path d="M83.9498 61.573C87.1978 61.573 89.8303 59.0319 89.8303 55.897C89.8303 52.7628 87.1978 50.2217 83.9498 50.2217C80.7026 50.2217 78.0701 52.7628 78.0701 55.897C78.0701 59.0319 80.7026 61.573 83.9498 61.573ZM102.721 61.573C105.969 61.573 108.602 59.0319 108.602 55.897C108.602 52.7628 105.969 50.2217 102.721 50.2217C99.474 50.2217 96.8414 52.7628 96.8414 55.897C96.8414 59.0319 99.474 61.573 102.721 61.573ZM121.492 61.573C124.74 61.573 127.372 59.0319 127.372 55.897C127.372 52.7628 124.74 50.2217 121.492 50.2217C118.245 50.2217 115.612 52.7628 115.612 55.897C115.612 59.0319 118.245 61.573 121.492 61.573Z" fill="#FF0000" fill-opacity="0.34"/>
</svg>
